<svg xmlns="http://www.w3.org/2000/svg" width="66" height="20" viewBox="0 0 400 120"><g fill-rule="evenodd"><path d="M222.667 60.083v60.084H400V0H222.667v60.083M65.247 32.419C39.428 35.746 31.975 70.33 54.206 83.654c10.741 6.436 27.659 4.761 37.377-3.702l.667-.58.045-11.627c.04-10.249.015-11.673-.212-12.019l-.257-.393H80.319c-7.614 0-11.617.059-11.83.173-.338.181-.516 9.931-.191 10.443.092.144 1.443.212 4.928.25 5.838.062 5.275-.29 5.272 3.291-.004 3.538-.323 3.921-4.06 4.868-9.896 2.51-18.328-4.015-18.339-14.191-.013-13.086 12.977-19.085 24.033-11.097.852.615 1.676 1.094 1.831 1.064.418-.08 8.186-9.64 8.196-10.085.014-.669-3.544-3.243-6.591-4.768-5.108-2.556-12.153-3.656-18.321-2.862m66.92-.006c-14.329 1.877-24.24 13.122-24.24 27.504 0 14.56 9.847 25.711 24.282 27.498 21.002 2.6 37.011-16.772 30.359-36.736-4.116-12.355-16.898-20.035-30.401-18.266m-58.585.173c5.851.685 10.548 2.586 15.126 6.124.767.593 1.292 1.121 1.292 1.3 0 .348-7.535 9.67-7.987 9.88-.231.108-.645-.114-1.781-.954-10.982-8.12-24.241-2.035-24.29 11.147-.039 10.381 8.508 16.996 18.627 14.417 3.827-.976 4.152-1.404 4.069-5.367-.07-3.372.51-3.033-5.354-3.133l-4.867-.083-.045-4.98c-.031-3.536.011-5.046.146-5.209.306-.369 23.017-.336 23.387.034.348.348.392 22.899.046 23.522-.698 1.255-6.771 4.836-10.368 6.113C60.785 92.783 41.442 80.549 41.424 60c-.014-17.611 13.979-29.54 32.158-27.414m66.121-.012c25.173 3.123 33.195 36.047 12.204 50.084-18.947 12.669-43.813-.237-43.813-22.741 0-17.096 14.325-29.487 31.609-27.343m151.13 1.756c.221.139.25 3.183.25 25.753 0 22.571-.029 25.615-.25 25.754-.394.249-16.383.213-16.633-.037-.291-.291-.291-51.143 0-51.433.25-.251 16.239-.286 16.633-.037m68.3.037c.394.393.276 16.581-.122 16.794-.209.112-3.12.172-8.3.172-5.983 0-8.028.05-8.178.2-.153.153-.2 4.172-.2 17.072 0 15.115-.027 16.898-.262 17.133-.344.344-16.363.403-16.704.062-.153-.153-.2-4.158-.2-17.011 0-11.269-.057-16.917-.173-17.133-.167-.312-.434-.323-8.213-.323-7.007 0-8.088-.033-8.411-.259l-.37-.26v-8.001c0-5.197.06-8.115.173-8.324.213-.4 50.562-.52 50.96-.122M134.11 45.515c-13.098 1.761-15.901 21.69-3.865 27.486 9.351 4.505 18.989-2.136 18.989-13.084 0-9.038-6.807-15.52-15.124-14.402m5.057.504c9.206 2.312 13.132 14.675 7.265 22.883-6.383 8.931-20.389 6.017-23.161-4.819-2.829-11.059 5.608-20.647 15.896-18.064" fill="#fb6c04"/><path d="M65.333 32.579C51.001 34.457 41.412 45.454 41.424 60c.018 20.549 19.361 32.783 40.159 25.397 3.597-1.277 9.67-4.858 10.368-6.113.346-.623.302-23.174-.046-23.522-.37-.37-23.081-.403-23.387-.034-.135.163-.177 1.673-.146 5.209l.045 4.98 4.867.083c5.864.1 5.284-.239 5.354 3.133.083 3.963-.242 4.391-4.069 5.367-10.119 2.579-18.666-4.036-18.627-14.417.049-13.182 13.308-19.267 24.29-11.147 1.136.84 1.55 1.062 1.781.954.452-.21 7.987-9.532 7.987-9.88 0-.637-3.988-3.389-6.895-4.76-5.195-2.449-11.84-3.448-17.772-2.671m66.834 0C114.594 34.881 103.832 52.122 109.433 69c4.545 13.694 19.295 21.304 33.936 17.51 17.025-4.413 25.465-23.293 17.551-39.26-5.121-10.332-16.716-16.248-28.753-14.671M274.2 34.367c-.291.29-.291 51.142 0 51.433.25.25 16.239.286 16.633.037.221-.139.25-3.183.25-25.754 0-22.57-.029-25.614-.25-25.753-.394-.249-16.383-.214-16.633.037m33.973.122c-.113.209-.173 3.127-.173 8.324v8.001l.37.26c.323.226 1.404.259 8.411.259 7.779 0 8.046.011 8.213.323.116.216.173 5.864.173 17.133 0 12.853.047 16.858.2 17.011.341.341 16.36.282 16.704-.062.235-.235.262-2.018.262-17.133 0-12.9.047-16.919.2-17.072.15-.15 2.195-.2 8.178-.2 5.18 0 8.091-.06 8.3-.172.398-.213.516-16.401.122-16.794-.398-.398-50.747-.278-50.96.122M139.167 45.852c8.464 2.119 12.72 12.534 8.608 21.065-5.383 11.169-21.564 9.311-24.67-2.834-2.846-11.123 5.702-20.826 16.062-18.231" fill="#fbfbfb"/><path d="M0 60.083v60.084h178.273l8.836-12.625c27-38.577 32.583-46.582 32.756-46.961.381-.836 1.211.422-14.531-21.998-1.802-2.566-5.039-7.179-7.192-10.25A169643.983 169643.983 0 0 0 178.813.772L178.269 0H0v60.083m73.571-27.665c4.931.577 9.029 2.016 12.929 4.538 2.207 1.427 3.668 2.663 3.659 3.093-.01.445-7.778 10.005-8.196 10.085-.155.03-.979-.449-1.831-1.064-9.624-6.953-20.901-3.529-23.65 7.18-2.91 11.335 6.65 20.976 17.956 18.108 3.737-.947 4.056-1.33 4.06-4.868.003-3.581.566-3.229-5.272-3.291-3.485-.038-4.836-.106-4.928-.25-.325-.512-.147-10.262.191-10.443.213-.114 4.216-.173 11.83-.173h11.507l.257.393c.227.346.252 1.77.212 12.019l-.045 11.627-.667.58c-8.607 7.496-23.212 9.819-33.925 5.398-22.462-9.271-21.962-42.23.777-51.179 4.523-1.779 9.741-2.384 15.136-1.753m66.207-.002c26.924 3.334 33.446 40.032 9.267 52.148-19.229 9.635-41.118-3.485-41.118-24.647 0-17.226 14.402-29.661 31.851-27.501m-5.579 13.256c-13.083 1.783-15.813 21.443-3.782 27.243 9.095 4.385 18.626-2.213 18.657-12.915.026-8.959-6.704-15.441-14.875-14.328" fill="#040404"/></g></svg>