<svg xmlns="http://www.w3.org/2000/svg" width="66" height="20" viewBox="0 0 400 120"><g fill-rule="evenodd"><path d="M223.333 60.083v60.084H400V0H223.333v60.083m67.667 0v25.75h-16.833v-51.5H291v25.75m68.333-17.333v8.417h-17.166v34.666h-16.834V51.167h-17.166V34.333h51.166v8.417" fill="#fc6c04"/><path d="M0 60.083v60.084h177.277l.851-1.209a606.12 606.12 0 0 1 3.29-4.67c.962-1.354 1.749-2.501 1.749-2.549 0-.047.077-.177.172-.288.156-.183 1.25-1.734 6.017-8.534.899-1.284 1.699-2.411 1.778-2.505.078-.094.284-.394.458-.666.173-.273 1.048-1.525 1.944-2.782.897-1.257 1.631-2.332 1.631-2.387 0-.055.093-.202.208-.327.115-.124.905-1.225 1.757-2.446.852-1.221 2.523-3.608 3.713-5.304a330.968 330.968 0 0 0 2.368-3.398c.112-.173.516-.745.898-1.273.382-.527.982-1.398 1.333-1.935.352-.538.734-1.077.849-1.199.115-.121.283-.359.373-.527.09-.168.879-1.306 1.753-2.528a185.803 185.803 0 0 0 1.749-2.473c.088-.138 1.117-1.612 2.288-3.276 1.17-1.664 2.84-4.05 3.711-5.302.87-1.251 1.658-2.365 1.75-2.474.091-.109.449-.631.795-1.159l.628-.961-1.246-1.789c-1.417-2.034-1.499-2.152-3.179-4.539a81.439 81.439 0 0 0-1.373-1.917 7.346 7.346 0 0 1-.461-.708c-.176-.298-.378-.542-.45-.542-.072 0-.131-.071-.131-.157 0-.129-1.188-1.861-4.122-6.01l-1.997-2.833c-.937-1.329-1.78-2.507-1.875-2.618-.095-.111-.173-.244-.173-.295 0-.052-.661-1.011-1.47-2.132a351.686 351.686 0 0 1-3.031-4.288c-1.636-2.358-2.883-4.111-3.165-4.452-.092-.11-.167-.245-.167-.298 0-.054-.078-.188-.172-.299-.095-.111-.961-1.326-1.925-2.701-.963-1.375-1.848-2.618-1.967-2.763a7.907 7.907 0 0 1-.529-.791c-.171-.291-.371-.53-.443-.53-.072 0-.131-.073-.131-.162 0-.133-2.29-3.476-2.81-4.101a14.338 14.338 0 0 1-.614-.916c-.256-.406-1.035-1.525-1.732-2.487-1.442-1.991-1.675-2.323-2.287-3.25-.242-.367-.504-.692-.582-.723a.243.243 0 0 1-.141-.212c0-.087-.6-.983-1.334-1.992-.733-1.009-1.333-1.907-1.333-1.996 0-.088-.061-.161-.136-.161-.075 0-.304-.281-.51-.625-.206-.343-.538-.85-.739-1.126-.201-.275-.695-.969-1.097-1.541L177.285 0H0v60.083m73.325-27.576c.784.096 1.912.284 2.508.418.596.135 1.203.244 1.349.243.449-.002 4.179 1.26 5.375 1.819.621.291 1.294.601 1.495.69.2.089.59.309.865.49s.612.379.75.441c.356.158 3.612 2.525 4.114 2.99l.42.389-1.717 2.132c-.945 1.172-1.778 2.156-1.851 2.187-.073.03-.133.161-.133.291 0 .13-.06.236-.132.236-.073 0-.408.357-.743.792-.336.435-.783.99-.993 1.232-.21.242-.904 1.08-1.542 1.862-1.269 1.555-1.213 1.54-2.257.616-1.089-.964-5.051-3.168-5.695-3.168-.116 0-.513-.104-.882-.232-3.11-1.069-9-.639-10.923.798a9.44 9.44 0 0 1-.821.504c-3.831 2.124-6.663 7.579-6.676 12.861-.003 1.36.396 4.234.655 4.718.097.181.176.462.176.624 0 1.328 3.998 6.893 4.951 6.893.119 0 .215.058.215.129 0 .071.282.273.625.45.344.177.738.408.875.515 2.774 2.145 10.889 2.01 14.618-.242l.716-.433v-6.585H68.333V55.5H92V79.443l-.792.565c-.435.311-.866.627-.958.702-.429.35-2.254 1.623-2.328 1.623-.045 0-.553.285-1.127.634-1.185.718-1.334.79-4.378 2.107-.275.119-1.175.423-2 .676-.825.252-1.8.554-2.167.669-.661.208-1.53.366-4.583.836-5.602.862-14.196-.624-18.334-3.17-.321-.198-.696-.41-.833-.471-1.712-.766-5.888-4.358-7.494-6.447-.318-.413-.636-.775-.708-.806-.072-.03-.131-.131-.131-.224s-.169-.405-.375-.693C45.439 74.952 44 72.501 44 72.393c0-.027-.179-.446-.397-.93-2.401-5.319-2.999-12.768-1.49-18.546.437-1.671 1.749-5.22 2.126-5.75.098-.138.258-.4.357-.584.645-1.203.94-1.663 1.942-3.037 5.935-8.136 16.135-12.339 26.787-11.039m66.508.065c3.256.44 6.247 1.342 9.117 2.751.385.189.779.344.875.344.096 0 .175.07.175.155 0 .086.169.208.375.273.206.064.412.163.458.219.046.057.534.4 1.084.763 11.548 7.63 15.52 24.366 8.583 36.173-.269.458-.615 1.058-.77 1.333-5.636 10.044-20.18 15.355-32.147 11.738-5.587-1.689-10.739-5.17-13.916-9.405-.413-.55-.807-1.024-.875-1.055-.069-.03-.125-.136-.125-.234s-.177-.411-.392-.695c-1.211-1.593-3.06-6.025-3.588-8.599-.624-3.041-.687-3.619-.685-6.284.003-5.541 1.311-10.233 4.14-14.853.399-.651 2.166-3.006 2.599-3.465l.945-1c3.535-3.743 7.631-6.009 13.981-7.735 2.313-.629 7.15-.831 10.166-.424M134 45.574c-2.339.328-4.991 1.448-6.296 2.658-1.256 1.164-1.656 1.595-2.317 2.492-4.754 6.458-3.225 17.185 3.03 21.256.366.238.704.481.75.538.083.105 1.735.885 2.473 1.169 1.661.638 4.909.873 6.777.491 1.451-.298 2.735-.686 2.843-.86.051-.083.207-.151.346-.151 1.396 0 5.053-3.725 6.301-6.417.17-.367.362-.78.428-.919 1.171-2.486 1.363-6.711.469-10.331-.806-3.261-3.657-6.905-6.691-8.552-1.525-.829-5.286-1.746-6.53-1.593-.091.011-.804.11-1.583.219" fill="#040404"/></g></svg>
