<svg xmlns="http://www.w3.org/2000/svg" width="66" height="20" viewBox="0 0 400 120"><g fill-rule="evenodd"><path d="M223.5 60.083v60.084H400V0H223.5v60.083M67.542 32.286c.252.038.664.038.916 0s.046-.069-.458-.069-.71.031-.458.069m2.583.001c.298.037.785.037 1.083 0 .298-.037.054-.067-.541-.067-.596 0-.84.03-.542.067m64.25-.001c.252.038.665.038.917 0s.045-.069-.459-.069-.71.031-.458.069m2.333 0c.252.038.665.038.917 0s.046-.069-.458-.069c-.505 0-.711.031-.459.069m154.358 2.144c.152.399.116 51.122-.038 51.363-.105.165-1.925.201-8.539.167l-8.406-.043-.042-25.667c-.024-14.117-.008-25.76.036-25.875.134-.353 16.853-.298 16.989.055m68.227 8.278-.043 8.542-8.458.043-8.457.043-.043 17.291-.042 17.29h-17l-.083-17.25-.084-17.25-8.318-.044c-5.804-.03-8.386-.099-8.541-.228-.239-.199-.349-16.631-.113-16.867.061-.061 11.612-.111 25.668-.111h25.557l-.043 8.541M89.762 39.516c.268.329.522.571.563.536.041-.034-.179-.304-.488-.599l-.563-.536.488.599m-21.048 5.941c.531.033 1.356.033 1.834-.001s.044-.061-.965-.06c-1.008 0-1.399.028-.869.061m58.026 3.751-.49.542.542-.49c.298-.269.541-.512.541-.541 0-.129-.137-.016-.593.489m-58.462 6.236a.469.469 0 0 0-.109.292c.002.106.058.093.136-.03.106-.167 2.581-.201 11.982-.167 6.516.025 11.813-.012 11.771-.081-.096-.154-23.626-.168-23.78-.014m95.597 1.973c.002.366.036.497.076.289.04-.207.039-.507-.003-.666-.042-.16-.074.01-.073.377m-122.663.25c0 .412.033.581.072.375.04-.207.04-.544 0-.75-.039-.207-.072-.038-.072.375m66.66 0c0 .32.034.452.076.291.042-.16.042-.423 0-.583-.042-.16-.076-.029-.076.292m41.357 2.25c0 1.008.028 1.399.061.869.033-.531.033-1.356-.001-1.834-.033-.478-.06-.044-.06.965M41.214 62.25c.002.458.034.626.072.373a2.94 2.94 0 0 0-.002-.834c-.04-.205-.071.003-.07.461m66.658-.083c0 .32.034.452.076.291.042-.16.042-.423 0-.583-.042-.16-.076-.029-.076.292m56.003.25c.002.366.036.497.076.289.04-.207.039-.507-.003-.666-.042-.16-.074.01-.073.377m-18.797 8.125-.995 1.041 1.042-.994c.573-.548 1.042-1.016 1.042-1.042 0-.123-.165.027-1.089.995M126.75 70.5c.358.367.688.667.734.667.046 0-.209-.3-.567-.667-.358-.367-.689-.667-.735-.667-.045 0 .21.3.568.667m-16 2.167c.142.275.296.5.342.5.046 0-.033-.225-.175-.5-.143-.275-.296-.5-.342-.5-.046 0 .033.225.175.5m23.877 1.618c.207.039.507.038.667-.004.159-.042-.011-.074-.377-.072-.367.002-.497.036-.29.076m2.167 0c.207.039.507.038.666-.004.16-.042-.01-.074-.377-.072-.366.002-.497.036-.289.076m-67 .666c.207.04.507.039.666-.003.16-.042-.01-.074-.377-.073-.366.002-.497.036-.289.076m45.123 3.716c.358.366.688.666.734.666.046 0-.21-.3-.568-.666-.358-.367-.688-.667-.734-.667-.046 0 .21.3.568.667m40.989.875-.489.541.541-.489c.298-.269.542-.513.542-.542 0-.129-.138-.015-.594.49m-39.323.791c.358.367.689.667.735.667.045 0-.21-.3-.568-.667-.358-.366-.688-.666-.734-.666-.046 0 .209.3.567.666M123 84.75c.229.131.492.238.583.238.092 0-.02-.107-.25-.238-.229-.131-.491-.238-.583-.238-.092 0 .021.107.25.238m-54.451 2.874c.622.032 1.597.032 2.166-.001.569-.032.06-.059-1.132-.058-1.191 0-1.657.027-1.034.059m66.326-.001c.527.033 1.39.033 1.917 0 .527-.033.095-.06-.959-.06s-1.485.027-.958.06" fill="#fb6c04"/><path d="M177.87 1.042c4.104 5.859 28.517 40.663 34.049 48.541 3.927 5.592 7.142 10.279 7.145 10.417.003.137-4.561 6.775-10.142 14.75a78101.388 78101.388 0 0 0-20.808 29.75 5897.8 5897.8 0 0 1-10.824 15.458c-.131.167 4.497.209 23.023.209H223.5V0H177.141l.729 1.042M68.083 32.28c-3.49.188-6.958.917-9.822 2.066-23.432 9.398-22.495 43.839 1.406 51.656 10.319 3.375 23.819.791 31.792-6.085l.71-.612-.043-11.861-.043-11.861-11.822-.042c-9.348-.034-11.851.001-11.956.166-.172.271-.175 9.978-.003 10.249.098.154 1.384.217 5.123.25l4.992.044.045 3.145c.052 3.573.11 3.396-1.356 4.135-3.794 1.916-9.992 1.819-13.763-.215-11.588-6.25-9.095-25.173 3.653-27.742 4.195-.846 9.384.52 13.337 3.508.779.59 1.492 1.072 1.584 1.072.192 0 8.141-9.741 8.218-10.072.128-.551-4.222-3.596-7.005-4.905-4.286-2.015-10.216-3.156-15.047-2.896m66.834.001c-19.33 1.02-31.705 18.979-25.469 36.959 7.922 22.839 40.892 24.762 51.625 3.01 9.399-19.048-5.022-41.084-26.156-39.969m139.16 2.094c-.044.115-.06 11.758-.036 25.875l.042 25.667 8.406.043c6.614.034 8.434-.002 8.539-.167.154-.241.19-50.964.038-51.363-.136-.353-16.855-.408-16.989-.055m34.034-.097c-.236.236-.126 16.668.113 16.867.155.129 2.737.198 8.541.228l8.318.044.084 17.25.083 17.25h17l.042-17.29.043-17.291 8.457-.043 8.458-.043.043-8.542.043-8.541h-25.557c-14.056 0-25.607.05-25.668.111M139.25 45.898c14.769 3.99 12.621 27.588-2.583 28.385-10.156.532-17-10.494-12.818-20.652 2.506-6.088 9.147-9.422 15.401-7.733" fill="#fbfbfb"/><path d="M0 60.083v60.084l88.542-.007 88.541-.008 2.343-3.367c1.289-1.853 10.726-15.349 20.971-29.992 10.245-14.644 18.603-26.73 18.574-26.858-.03-.129-9.467-13.663-20.971-30.076L177.083.016 88.542.008 0 0v60.083m72.763-27.742c4.161.398 7.323 1.275 10.82 3.001 2.986 1.474 6.883 4.238 6.689 4.743-.096.251-8.04 10.021-8.256 10.155-.079.049-.844-.432-1.7-1.069-10.76-8.002-23.596-2.577-24.264 10.255-.409 7.86 4.429 14.101 11.831 15.262 3.453.541 8.884-.479 10.349-1.943.344-.345.405-6.041.068-6.378-.147-.147-1.526-.2-5.169-.2h-4.969l.044-5.375.044-5.375h23.833l.043 12.033.043 12.033-1.34 1.02C71.58 95.156 44.625 86.322 41.424 64.312 38.69 45.508 53.41 30.49 72.763 32.341m66.738.069c17.688 2.071 28.761 19.457 23.147 36.34-8.652 26.014-47.396 24.684-53.971-1.852-4.8-19.377 10.801-36.832 30.824-34.488m-5.879 13.343c-14.244 2.696-14.634 24.831-.495 28.186 6.612 1.568 13.327-2.445 15.374-9.189 3.217-10.602-4.845-20.896-14.879-18.997" fill="#040404"/></g></svg>