<svg xmlns="http://www.w3.org/2000/svg" width="67" height="20" viewBox="128 50 384 150"><defs><style>.cls-1,.cls-2{fill:#45d6ad}.cls-1{fill-rule:evenodd}</style></defs><path class="cls-1" d="M314.94 121.5c0-6.44-1.8-9.33-4.22-11.61-2-1.93-5.29-2.49-10.49-2.67-1.83-.07-45.43 0-47.44 0-10.5 0-12.2 1.6-14.21 3.12-2.41 1.83-4.55 5.52-4.55 11.16v31.7c.06 6.27 2.17 10.38 6.28 12.21 1.76.78 5.54 1.56 18.11 1.56L312 167v-11.9h-55.89a3.41 3.41 0 0 1-3.47-3.55v-8.35h62.27Zm-18.68 9.62-43.67-.1v-8.24a3.54 3.54 0 0 1 3.52-3.66h36.47a3.72 3.72 0 0 1 3.68 3.71Z"/><path class="cls-2" d="M322.81 83.18h18.68v83.79h-18.68zM349.43 83.22h18.65v83.75h-18.65z"/><path class="cls-1" d="M203.22 118.76h22.12v-11.57h-22.12V83H184.5v70.2c0 6.34 2.2 10.51 6.22 12.48 3 1.48 5.4 1.29 18 1.29l16.65-.07v-11.77s-17 .25-19.48-.49c-2.09-.61-2.64-2.24-2.64-4.27Z"/><path class="cls-2" d="M69.22 107.19H88v59.78H69.22zM69.31 83.12h18.68v11.99H69.31z"/><path class="cls-1" d="M175.36 111.89c-3.05-3.46-4.66-4.84-22.06-4.75H95.89V167h18.62v-47.78h40.88a3.46 3.46 0 0 1 3.57 3.52V167h18.8v-36.84c0-6.43.5-15-2.4-18.27M473.75 108.36c-1.78-.72-3.6-1.24-16.19-1.24h-52.07v11.95h53.7A4 4 0 0 1 463 123v8h-51.47c-5.85-.08-8.86 3.42-8.86 11.75 0 0-.16 6.85 0 12.13.08 2.86 0 5.84 1.09 7.9 1.37 2.64 3.57 3.79 8 4.13l70.08.06v-45.33c0-6.44-3.67-11.47-8.06-13.28M459.36 155h-34.58a3.29 3.29 0 0 1-3.39-3v-5.67a3.48 3.48 0 0 1 3.38-3.27h38.25v8.41a3.57 3.57 0 0 1-3.66 3.55M570.77 147.24c0-4.4.42-9.48-3.72-13.61-2.86-2.87-7.58-2.51-7.56-2.61h-47.75a3.26 3.26 0 0 1-3.08-2.69 14.3 14.3 0 0 1-.06-1.48v-4.64a3.24 3.24 0 0 1 .24-1.22 3.14 3.14 0 0 1 2.9-1.94h56.19v-11.91h-53.59c-12.66 0-15.74.29-18.18 1.61-3.94 2.13-6.36 6.14-6.36 12.55v5.16c0 4 .07 8.58 3.79 12.56 3.39 3.63 7.08 3.76 11.82 4.08h43.58a3.33 3.33 0 0 1 3.25 3.24v5.53A3.45 3.45 0 0 1 549 155h-56.31v11.9h54.5c13.28.11 15.68-.17 17.38-1.06 4.89-2.54 5.84-5.75 6.19-11.72Z"/><path class="cls-2" d="M376.13 83.12h18.61v11.99h-18.61zM376.13 107.29h18.61v59.69h-18.61z"/></svg>
